<svg version="1.1" id="Слой_1" xmlns="http://www.w3.org/2000/svg" xmlns:xlink="http://www.w3.org/1999/xlink" x="0px" y="0px"
	 width="24.945px" height="24.945px" viewBox="0 0 24.945 24.945" enable-background="new 0 0 24.945 24.945" xml:space="preserve">
<g>
	<path fill="#6639B5" d="M16.121,11.205c0.193-0.194,0.513-0.195,0.707,0c0.193,0.195,0.193,0.515,0,0.709l-4.914,4.912
		c-0.189,0.193-0.514,0.195-0.707,0.002c0-0.002,0-0.002,0-0.002l-2.816-2.82c-0.195-0.19-0.195-0.513,0-0.706
		c0.189-0.191,0.512-0.189,0.707,0l2.465,2.469L16.121,11.205z"/>
	<path fill="#6639B5" d="M15.972,2.972h-9c-1.227,0-2,0.895-2,2v15c0,1.104,0.773,2,2,2h11c1.225,0,2-0.896,2-2v-13
		C19.972,5.847,16.758,2.972,15.972,2.972z M15.972,3.972c0.319,0,3,2.512,3,3h-3V3.972z M18.972,19.972c0,0.582-0.363,1-1,1h-11
		c-0.64,0-1-0.418-1-1v-15c0-0.582,0.36-1,1-1h8v4h4V19.972z"/>
</g>
</svg>
