<svg version="1.1" id="Слой_1" xmlns="http://www.w3.org/2000/svg" xmlns:xlink="http://www.w3.org/1999/xlink" x="0px" y="0px"
	 width="24.945px" height="24.945px" viewBox="0 0 24.945 24.945" enable-background="new 0 0 24.945 24.945" xml:space="preserve">
<g>
	<path fill="#6639B5" d="M21.939,7.846c0,0-1.42-3.429-1.92-4.577c-0.023-0.056-0.442-1.297-1.75-1.297H6.692
		C5.374,1.972,5,3.23,4.951,3.347c-0.472,1.143-1.919,4.5-1.919,4.5L2.972,8.12v12.7c0,0.637,0.539,1.152,1.198,1.152h16.601
		c0.662,0,1.201-0.521,1.201-1.152V8.124L21.939,7.846z M18.269,2.971c0.516,0.016,0.732,0.423,0.812,0.642
		c0.311,0.872,1.411,3.359,1.411,3.359h-7.521v-4L18.269,2.971z M5.879,3.707C5.882,3.701,6.18,2.974,6.692,2.974h5.28v4h-7.5
		C4.472,6.971,5.483,4.519,5.879,3.707z M20.972,20.82c0,0.082-0.096,0.152-0.201,0.152H4.176c-0.105,0-0.198-0.07-0.198-0.152
		V8.124c0-0.01,0.012-0.016,0.014-0.021l0,0V8.097c0.021-0.069,0.091-0.126,0.188-0.126h16.599c0.105,0,0.201,0.065,0.201,0.148
		L20.972,20.82L20.972,20.82z"/>
	<path fill="#6639B5" d="M7.975,13.681l4.132,5.147l0,0c0.195,0.193,0.518,0.191,0.707-0.002l4.156-5.145
		c0.192-0.195,0.194-0.515,0.002-0.709c-0.195-0.193-0.516-0.193-0.707,0l-3.293,4.043V9.972h-1v7.052l-3.297-4.049
		c-0.188-0.191-0.512-0.193-0.703-0.002C7.78,13.17,7.783,13.488,7.975,13.681z"/>
</g>
</svg>
