<svg version="1.1" id="Слой_1" xmlns="http://www.w3.org/2000/svg" xmlns:xlink="http://www.w3.org/1999/xlink" x="0px" y="0px"
	 width="24.945px" height="24.945px" viewBox="0 0 24.945 24.945" enable-background="new 0 0 24.945 24.945" xml:space="preserve">
<g>
	<path fill="#6639B5" d="M5.5,2.972h-3c-0.275,0-0.5,0.224-0.5,0.5v2.5H0.5c-0.275,0-0.5,0.224-0.5,0.5v4c0,0.275,0.225,0.5,0.5,0.5
		c0.274,0,0.5-0.225,0.5-0.5v-3.5h1v11c0,0.067,0.014,0.137,0.04,0.194c0,0,0,0,0,0.002l1.5,3.5C3.618,21.853,3.8,21.972,4,21.972
		c0.199,0,0.381-0.119,0.46-0.304l1.5-3.5c0-0.002,0-0.002,0-0.002C5.985,18.108,6,18.04,6,17.972v-14.5
		C6,3.197,5.775,2.972,5.5,2.972z M3,3.972h2v2H3V3.972z M5,6.972v10l-1,2l-1-2v-10H5z"/>
	<g>
		<path fill="#6639B5" d="M19.972,2.972h-8c-1.225,0-2,0.895-2,2v15c0,1.104,0.775,2,2,2h10c1.225,0,2-0.896,2-2v-13
			C23.972,5.847,20.758,2.972,19.972,2.972z M19.972,3.972c0.321,0,3,2.512,3,3h-3V3.972z M22.972,19.972c0,0.582-0.363,1-1,1h-10
			c-0.638,0-1-0.418-1-1v-15c0-0.582,0.362-1,1-1h7v4h4V19.972z"/>
		<path fill="#6639B5" d="M20.472,12.972h-7c-0.276,0-0.5-0.224-0.5-0.5s0.224-0.5,0.5-0.5h7c0.276,0,0.5,0.224,0.5,0.5
			S20.749,12.972,20.472,12.972z"/>
		<path fill="#6639B5" d="M20.472,15.972h-7c-0.276,0-0.5-0.224-0.5-0.5s0.224-0.5,0.5-0.5h7c0.276,0,0.5,0.224,0.5,0.5
			S20.749,15.972,20.472,15.972z"/>
	</g>
</g>
</svg>
