<?xml version="1.0" encoding="utf-8"?>
<!-- Generator: Adobe Illustrator 16.0.0, SVG Export Plug-In . SVG Version: 6.00 Build 0)  -->
<!DOCTYPE svg PUBLIC "-//W3C//DTD SVG 1.1//EN" "http://www.w3.org/Graphics/SVG/1.1/DTD/svg11.dtd">
<svg version="1.1" id="artwork" xmlns="http://www.w3.org/2000/svg" xmlns:xlink="http://www.w3.org/1999/xlink" x="0px" y="0px"
	 width="135px" height="40px" viewBox="0 0 135 40" enable-background="new 0 0 135 40" xml:space="preserve">
<path fill="#3C5A7E" d="M130,0.8c2.316,0,4.2,1.884,4.2,4.2v30c0,2.316-1.884,4.2-4.2,4.2H5c-2.316,0-4.2-1.884-4.2-4.2V5
	c0-2.316,1.884-4.2,4.2-4.2H130 M130,0H5C2.25,0,0,2.25,0,5v30c0,2.75,2.25,5,5,5h125c2.75,0,5-2.25,5-5V5C135,2.25,132.75,0,130,0
	L130,0z"/>
<g>
	<path fill="#3C5A7E" d="M47.418,10.243c0,0.838-0.248,1.505-0.745,2.003c-0.564,0.592-1.3,0.888-2.204,0.888
		c-0.866,0-1.603-0.3-2.208-0.9c-0.606-0.601-0.909-1.345-0.909-2.233c0-0.889,0.303-1.633,0.909-2.233
		c0.605-0.601,1.342-0.901,2.208-0.901c0.43,0,0.841,0.084,1.231,0.251c0.391,0.168,0.704,0.391,0.938,0.67l-0.527,0.528
		c-0.397-0.475-0.944-0.712-1.643-0.712c-0.632,0-1.178,0.222-1.639,0.666S42.139,9.291,42.139,10s0.23,1.286,0.691,1.73
		s1.007,0.666,1.639,0.666c0.67,0,1.229-0.223,1.676-0.67c0.29-0.291,0.458-0.696,0.503-1.215h-2.179V9.791h2.907
		C47.405,9.947,47.418,10.098,47.418,10.243z"/>
	<path fill="#3C5A7E" d="M52.028,7.737h-2.732V9.64h2.464v0.721h-2.464v1.902h2.732V13h-3.503V7h3.503V7.737z"/>
	<path fill="#3C5A7E" d="M55.279,13h-0.771V7.737h-1.676V7h4.123v0.737h-1.676V13z"/>
	<path fill="#3C5A7E" d="M59.938,13V7h0.771v6H59.938z"/>
	<path fill="#3C5A7E" d="M64.128,13h-0.771V7.737h-1.676V7h4.123v0.737h-1.676V13z"/>
	<path fill="#3C5A7E" d="M73.609,12.225c-0.59,0.606-1.323,0.909-2.2,0.909s-1.61-0.303-2.199-0.909
		c-0.59-0.606-0.884-1.348-0.884-2.225s0.294-1.619,0.884-2.225c0.589-0.606,1.322-0.91,2.199-0.91c0.872,0,1.604,0.305,2.196,0.914
		c0.592,0.609,0.888,1.349,0.888,2.221C74.493,10.877,74.198,11.619,73.609,12.225z M69.779,11.722
		c0.444,0.45,0.987,0.674,1.63,0.674s1.187-0.225,1.63-0.674c0.444-0.45,0.667-1.024,0.667-1.722s-0.223-1.272-0.667-1.722
		c-0.443-0.45-0.987-0.674-1.63-0.674s-1.186,0.225-1.63,0.674c-0.443,0.45-0.666,1.024-0.666,1.722S69.336,11.272,69.779,11.722z"
		/>
	<path fill="#3C5A7E" d="M75.575,13V7h0.938l2.916,4.667h0.033l-0.033-1.156V7h0.771v6h-0.805l-3.051-4.894h-0.033l0.033,1.156V13
		H75.575z"/>
</g>
<path fill="#3C5A7E" d="M68.136,21.751c-2.352,0-4.269,1.789-4.269,4.253c0,2.449,1.917,4.253,4.269,4.253
	c2.353,0,4.27-1.804,4.27-4.253C72.405,23.54,70.488,21.751,68.136,21.751z M68.136,28.583c-1.289,0-2.4-1.063-2.4-2.578
	c0-1.531,1.112-2.578,2.4-2.578c1.289,0,2.4,1.047,2.4,2.578C70.536,27.519,69.425,28.583,68.136,28.583z M58.822,21.751
	c-2.352,0-4.269,1.789-4.269,4.253c0,2.449,1.917,4.253,4.269,4.253c2.353,0,4.27-1.804,4.27-4.253
	C63.092,23.54,61.175,21.751,58.822,21.751z M58.822,28.583c-1.289,0-2.4-1.063-2.4-2.578c0-1.531,1.112-2.578,2.4-2.578
	c1.289,0,2.4,1.047,2.4,2.578C61.223,27.519,60.111,28.583,58.822,28.583z M47.744,23.057v1.804h4.318
	c-0.129,1.015-0.467,1.756-0.983,2.271c-0.628,0.628-1.611,1.321-3.335,1.321c-2.658,0-4.736-2.143-4.736-4.801
	s2.078-4.801,4.736-4.801c1.434,0,2.481,0.564,3.254,1.289l1.273-1.273c-1.08-1.031-2.513-1.82-4.527-1.82
	c-3.641,0-6.702,2.964-6.702,6.605c0,3.641,3.061,6.605,6.702,6.605c1.965,0,3.448-0.645,4.607-1.853
	c1.192-1.192,1.563-2.868,1.563-4.221c0-0.418-0.032-0.805-0.097-1.127H47.744z M93.052,24.458c-0.354-0.95-1.434-2.707-3.641-2.707
	c-2.191,0-4.012,1.724-4.012,4.253c0,2.384,1.805,4.253,4.221,4.253c1.949,0,3.077-1.192,3.545-1.885l-1.45-0.967
	c-0.483,0.709-1.144,1.176-2.095,1.176c-0.95,0-1.627-0.435-2.062-1.289l5.687-2.352L93.052,24.458z M87.252,25.876
	c-0.048-1.644,1.273-2.481,2.224-2.481c0.741,0,1.369,0.371,1.579,0.902L87.252,25.876z M82.629,30h1.868V17.499h-1.868V30z
	 M79.567,22.702h-0.064c-0.419-0.5-1.225-0.951-2.239-0.951c-2.127,0-4.076,1.869-4.076,4.27c0,2.384,1.949,4.237,4.076,4.237
	c1.015,0,1.82-0.451,2.239-0.966h0.064v0.612c0,1.627-0.87,2.497-2.271,2.497c-1.144,0-1.853-0.821-2.143-1.514l-1.627,0.677
	c0.467,1.127,1.707,2.513,3.77,2.513c2.191,0,4.044-1.289,4.044-4.431v-7.636h-1.772V22.702z M77.425,28.583
	c-1.289,0-2.368-1.08-2.368-2.562c0-1.499,1.079-2.594,2.368-2.594c1.272,0,2.271,1.095,2.271,2.594
	C79.696,27.503,78.697,28.583,77.425,28.583z M101.806,17.499h-4.471V30H99.2v-4.736h2.605c2.068,0,4.102-1.497,4.102-3.882
	S103.874,17.499,101.806,17.499z M101.854,23.524H99.2v-4.285h2.654c1.395,0,2.187,1.155,2.187,2.143
	C104.041,22.35,103.249,23.524,101.854,23.524z M113.386,21.729c-1.351,0-2.75,0.595-3.329,1.914l1.656,0.691
	c0.354-0.691,1.014-0.917,1.705-0.917c0.965,0,1.946,0.579,1.962,1.608v0.129c-0.338-0.193-1.062-0.482-1.946-0.482
	c-1.785,0-3.603,0.981-3.603,2.814c0,1.673,1.464,2.75,3.104,2.75c1.254,0,1.946-0.563,2.38-1.223h0.064v0.965h1.802v-4.793
	C117.182,22.967,115.524,21.729,113.386,21.729z M113.16,28.58c-0.61,0-1.463-0.306-1.463-1.062c0-0.965,1.062-1.335,1.979-1.335
	c0.819,0,1.206,0.177,1.704,0.418C115.235,27.76,114.238,28.58,113.16,28.58z M123.743,22.002l-2.139,5.42h-0.064l-2.22-5.42h-2.01
	l3.329,7.575l-1.898,4.214h1.946l5.131-11.789H123.743z M106.937,30h1.865V17.499h-1.865V30z"/>
<g>
	<path fill="#3C5A7E" d="M22.914,19.101l3.649-3.642L12.514,7.477c-0.567-0.322-1.081-0.385-1.502-0.259L22.914,19.101z"/>
	<path fill="#3C5A7E" d="M10.112,8.086C10.023,8.33,9.973,8.615,9.973,8.943v22.116c0,0.316,0.046,0.594,0.128,0.832l11.928-11.907
		L10.112,8.086z"/>
	<path fill="#3C5A7E" d="M22.914,20.867L10.982,32.778c0.426,0.139,0.952,0.076,1.532-0.253l14.07-7.994L22.914,20.867z"/>
	<path fill="#3C5A7E" d="M32.015,18.558L27.69,16.1l-3.891,3.884l3.912,3.906l4.304-2.445
		C33.412,20.651,33.412,19.352,32.015,18.558z"/>
</g>
</svg>
