<svg version="1.1" id="Слой_1" xmlns="http://www.w3.org/2000/svg" xmlns:xlink="http://www.w3.org/1999/xlink" x="0px" y="0px"
	 width="24.945px" height="24.945px" viewBox="0 0 24.945 24.945" enable-background="new 0 0 24.945 24.945" xml:space="preserve">
<g>
	<g>
		<path fill="#6639B5" d="M19.945,1.972c1.103,0,2,0.897,2,2c0,1.104-0.897,2-2,2c-1.104,0-2-0.896-2-2
			C17.945,2.871,18.842,1.972,19.945,1.972 M19.945,0.972c-1.656,0-3,1.343-3,3c0,1.656,1.344,3,3,3c1.655,0,3-1.344,3-3
			C22.945,2.315,21.601,0.972,19.945,0.972L19.945,0.972z"/>
		<path fill="#6639B5" d="M24.945,20.179h-7.26l1.971-1.975c0.192-0.191,0.194-0.511,0.001-0.705
			c-0.194-0.193-0.514-0.191-0.706,0.002l-2.822,2.815c0,0,0,0-0.001,0c-0.194,0.195-0.192,0.517,0.001,0.707l2.783,2.802
			c0.195,0.194,0.514,0.196,0.709,0.002c0.195-0.195,0.195-0.515,0-0.707l-1.928-1.941h7.252V20.179z"/>
		<path fill="#6639B5" d="M24.943,9.575c0.002-0.023-0.009-0.045-0.012-0.069C24.926,9.469,24.923,9.434,24.91,9.4
			c-0.013-0.031-0.03-0.056-0.047-0.083c-0.019-0.027-0.031-0.055-0.054-0.079c-0.024-0.027-0.055-0.045-0.085-0.066
			c-0.021-0.014-0.034-0.032-0.057-0.044l-2.5-1c-0.011-0.005-0.023-0.005-0.034-0.009c-0.031-0.013-0.062-0.02-0.098-0.025
			c-0.031-0.007-0.062-0.013-0.092-0.013c-0.031,0-0.062,0.006-0.093,0.013c-0.032,0.006-0.064,0.013-0.097,0.025
			c-0.012,0.004-0.024,0.004-0.035,0.009l-1.775,0.889l-1.776-0.889c-0.012-0.006-0.024-0.005-0.036-0.01
			C18.1,8.105,18.07,8.099,18.037,8.094c-0.032-0.007-0.062-0.013-0.093-0.013c-0.031,0-0.062,0.006-0.094,0.013
			c-0.032,0.006-0.064,0.013-0.097,0.025c-0.011,0.004-0.023,0.004-0.034,0.009l-2.5,1c-0.021,0.012-0.036,0.03-0.057,0.044
			c-0.03,0.021-0.061,0.04-0.085,0.066c-0.021,0.023-0.035,0.051-0.053,0.079C15.008,9.344,14.99,9.369,14.977,9.4
			c-0.013,0.034-0.016,0.069-0.021,0.105c-0.003,0.023-0.014,0.044-0.014,0.069l0.002,5.397c0,0.276,0.224,0.5,0.5,0.5
			s0.5-0.224,0.5-0.5V9.884l2-0.75l1.775,0.889c0.071,0.035,0.147,0.053,0.225,0.053c0.075,0,0.151-0.018,0.224-0.053l1.776-0.889
			l2,0.75v5.089c0,0.276,0.224,0.5,0.5,0.5s0.5-0.224,0.5-0.5L24.943,9.575z"/>
	</g>
	<g>
		<path fill="#6639B5" d="M5,1.972c1.104,0,2,0.898,2,2c0,1.104-0.896,2-2,2c-1.103,0-2-0.896-2-2C3,2.87,3.897,1.972,5,1.972
			 M5,0.972c-1.656,0-3,1.343-3,3c0,1.656,1.345,3,3,3c1.656,0,3-1.344,3-3C8,2.315,6.656,0.972,5,0.972L5,0.972z"/>
		<path fill="#6639B5" d="M0,21.179h7.252l-1.928,1.941c-0.195,0.192-0.195,0.512,0,0.707c0.195,0.194,0.514,0.192,0.709-0.002
			l2.783-2.802c0.193-0.19,0.195-0.512,0.001-0.707c-0.001,0-0.001,0-0.001,0l-2.822-2.815c-0.192-0.193-0.512-0.195-0.706-0.002
			c-0.193,0.194-0.191,0.514,0.001,0.705l1.971,1.975H0V21.179z"/>
		<path fill="#6639B5" d="M0.002,9.575C0,9.552,0.01,9.53,0.013,9.506C0.019,9.469,0.022,9.434,0.035,9.4
			c0.013-0.031,0.03-0.056,0.047-0.083C0.1,9.29,0.113,9.262,0.135,9.238C0.16,9.211,0.19,9.193,0.22,9.172
			c0.021-0.014,0.034-0.032,0.057-0.044l2.5-1c0.011-0.005,0.023-0.005,0.034-0.009c0.031-0.013,0.062-0.02,0.098-0.025
			C2.94,8.087,2.97,8.081,3.001,8.081c0.031,0,0.062,0.006,0.093,0.013C3.126,8.099,3.158,8.106,3.19,8.119
			c0.012,0.004,0.024,0.004,0.035,0.009l1.775,0.889l1.776-0.889c0.012-0.006,0.024-0.005,0.036-0.01
			c0.031-0.013,0.062-0.019,0.095-0.024C6.94,8.087,6.97,8.081,7.001,8.081c0.031,0,0.062,0.006,0.094,0.013
			c0.032,0.006,0.064,0.013,0.097,0.025c0.011,0.004,0.023,0.004,0.034,0.009l2.5,1c0.021,0.012,0.036,0.03,0.057,0.044
			c0.03,0.021,0.061,0.04,0.085,0.066C9.888,9.261,9.902,9.289,9.92,9.317C9.937,9.344,9.955,9.369,9.968,9.4
			C9.98,9.434,9.983,9.469,9.988,9.506c0.003,0.023,0.014,0.044,0.014,0.069L10,14.972c0,0.276-0.224,0.5-0.5,0.5S9,15.249,9,14.972
			V9.884l-2-0.75l-1.775,0.889C5.153,10.057,5.077,10.075,5,10.075c-0.075,0-0.151-0.018-0.224-0.053L3,9.134l-2,0.75v5.089
			c0,0.276-0.224,0.5-0.5,0.5S0,15.249,0,14.972L0.002,9.575z"/>
	</g>
</g>
</svg>
