<svg version="1.1" id="Слой_1" xmlns="http://www.w3.org/2000/svg" xmlns:xlink="http://www.w3.org/1999/xlink" x="0px" y="0px"
	 width="24.945px" height="24.945px" viewBox="0 0 24.945 24.945" enable-background="new 0 0 24.945 24.945" xml:space="preserve">
<g>
	<path fill="#6639B5" d="M21.439,5.899h-4.463l-0.004-3L0,2.878v16.021h2.974l0.019-0.02c0,0.003-0.001,0.007-0.001,0.01
		c0,1.648,1.339,2.989,2.991,2.989c1.648,0,2.984-1.336,2.99-2.98l0.001,0.001h8l0.002-0.002c0.004,1.646,1.342,2.981,2.989,2.981
		c1.652,0,2.99-1.341,2.99-2.989c0-0.003,0-0.007,0-0.01l0.019,0.02l1.973,0.021v-7.021L21.439,5.899z M5.982,20.88
		c-1.099,0-1.991-0.894-1.991-1.989c0-1.099,0.896-1.99,1.991-1.99c1.098,0,1.991,0.893,1.991,1.99
		C7.973,19.986,7.079,20.88,5.982,20.88z M15.972,17.899H8.792c-0.41-1.162-1.506-2-2.81-2c-1.303,0-2.4,0.838-2.811,2H0.973v-14h15
		L15.972,17.899L15.972,17.899z M16.972,6.899h3.973l2.812,5h-6.784V6.899z M19.965,20.88c-1.098,0-1.989-0.894-1.989-1.989
		c0-1.099,0.893-1.99,1.989-1.99c1.101,0,1.99,0.893,1.99,1.99C21.955,19.986,21.062,20.88,19.965,20.88z M23.972,17.899h-1.199
		c-0.41-1.162-1.506-2-2.81-2c-1.303,0-2.397,0.838-2.809,2h-0.184v-5h7L23.972,17.899L23.972,17.899z"/>
	<path fill="#6639B5" d="M12.076,7.53c0.195-0.195,0.513-0.196,0.707,0c0.195,0.195,0.195,0.514,0,0.709L7.87,13.152
		c-0.192,0.193-0.512,0.195-0.708,0.001c0-0.001,0-0.001,0-0.001L4.344,10.33c-0.194-0.194-0.194-0.512,0-0.706
		c0.193-0.195,0.512-0.193,0.706,0l2.467,2.465L12.076,7.53z"/>
</g>
</svg>
