<?xml version="1.0" encoding="UTF-8"?>
<svg xmlns="http://www.w3.org/2000/svg" width="24" height="24" viewBox="0 0 24 24" fill="none">
  <path d="M7 7h10" stroke="#5e3dbb" stroke-width="1.7" stroke-linecap="round"/>
  <path d="M9 3h6a2 2 0 0 1 2 2v2H7V5a2 2 0 0 1 2-2Z" stroke="#5e3dbb" stroke-width="1.7" stroke-linejoin="round"/>
  <path d="M5 7h14a2 2 0 0 1 2 2v10a2 2 0 0 1-2 2H5a2 2 0 0 1-2-2V9a2 2 0 0 1 2-2Z" stroke="#5e3dbb" stroke-width="1.7" stroke-linejoin="round"/>
  <path d="M12 11v6" stroke="#5e3dbb" stroke-width="1.7" stroke-linecap="round"/>
  <path d="M9 14h6" stroke="#5e3dbb" stroke-width="1.7" stroke-linecap="round"/>
</svg>
