<?xml version="1.0" encoding="utf-8"?>
<!-- Generator: Adobe Illustrator 16.0.0, SVG Export Plug-In . SVG Version: 6.00 Build 0)  -->
<!DOCTYPE svg PUBLIC "-//W3C//DTD SVG 1.1//EN" "http://www.w3.org/Graphics/SVG/1.1/DTD/svg11.dtd">
<svg version="1.1" id="Слой_1" xmlns="http://www.w3.org/2000/svg" xmlns:xlink="http://www.w3.org/1999/xlink" x="0px" y="0px"
	 width="200px" height="28px" viewBox="0 0 200 28" enable-background="new 0 0 200 28" xml:space="preserve">
<g>
	<g>
		<path fill="#1D1D1B" d="M81.226,2.859c0.712,0.406,1.27,0.968,1.672,1.685c0.402,0.718,0.604,1.526,0.604,2.427
			c0,0.901-0.201,1.71-0.604,2.427c-0.402,0.717-0.96,1.278-1.672,1.686c-0.713,0.406-1.516,0.609-2.407,0.609
			c-0.778,0-1.483-0.131-2.118-0.394c-0.634-0.262-1.16-0.643-1.58-1.141l1.074-1.05c0.674,0.727,1.518,1.089,2.532,1.089
			c0.787,0,1.454-0.24,2-0.722c0.546-0.48,0.881-1.114,1.003-1.901h-4.105v-1.35h4.08c-0.148-0.743-0.492-1.343-1.029-1.797
			c-0.539-0.455-1.188-0.683-1.948-0.683c-1.015,0-1.858,0.363-2.532,1.089l-1.074-1.05c0.418-0.498,0.945-0.878,1.58-1.141
			s1.34-0.394,2.118-0.394C79.71,2.249,80.513,2.452,81.226,2.859z"/>
		<path fill="#1D1D1B" d="M91.45,4.558v7.004h-1.64V5.948h-2.624l-0.064,1.39c-0.045,0.927-0.129,1.703-0.257,2.328
			c-0.127,0.626-0.341,1.119-0.643,1.482s-0.716,0.544-1.239,0.544c-0.245,0-0.547-0.048-0.904-0.144l0.078-1.378
			c0.123,0.026,0.229,0.04,0.315,0.04c0.332,0,0.582-0.134,0.748-0.4s0.272-0.586,0.321-0.957c0.047-0.372,0.09-0.903,0.125-1.594
			l0.117-2.702L91.45,4.558L91.45,4.558z"/>
		<path fill="#1D1D1B" d="M100.066,8.584h-5.497c0.098,0.517,0.348,0.925,0.756,1.227c0.406,0.302,0.91,0.452,1.514,0.452
			c0.771,0,1.406-0.253,1.904-0.761l0.879,1.011c-0.314,0.376-0.713,0.66-1.193,0.853c-0.482,0.192-1.024,0.288-1.627,0.288
			c-0.771,0-1.447-0.153-2.033-0.459c-0.586-0.306-1.038-0.732-1.357-1.279c-0.318-0.546-0.479-1.165-0.479-1.855
			c0-0.682,0.154-1.296,0.465-1.843c0.311-0.547,0.742-0.973,1.293-1.279s1.172-0.459,1.861-0.459c0.683,0,1.293,0.151,1.83,0.453
			c0.539,0.302,0.957,0.726,1.261,1.271c0.301,0.547,0.45,1.179,0.45,1.896C100.093,8.213,100.085,8.374,100.066,8.584z
			 M95.221,6.256c-0.363,0.311-0.584,0.724-0.662,1.239h3.973c-0.069-0.507-0.282-0.918-0.643-1.232
			C97.53,5.949,97.085,5.79,96.552,5.79C96.027,5.79,95.583,5.945,95.221,6.256z"/>
		<path fill="#1D1D1B" d="M104.685,8.755h-1.273v2.807h-1.639V4.558h1.639v2.833h1.312l2.072-2.833h1.758l-2.545,3.371l2.715,3.633
			h-1.928L104.685,8.755z"/>
		<path fill="#1D1D1B" d="M115.308,5.948h-2.451v5.613h-1.641V5.948h-2.465v-1.39h6.557V5.948z"/>
		<path fill="#1D1D1B" d="M122.095,4.925c0.539,0.297,0.961,0.717,1.266,1.259c0.307,0.543,0.459,1.168,0.459,1.876
			s-0.152,1.336-0.46,1.881c-0.305,0.547-0.728,0.969-1.267,1.266c-0.536,0.298-1.146,0.446-1.829,0.446
			c-0.943,0-1.691-0.314-2.242-0.944v3.397h-1.64V4.558h1.562v0.918c0.271-0.332,0.604-0.581,1.004-0.747
			c0.396-0.166,0.837-0.25,1.316-0.25C120.947,4.479,121.558,4.628,122.095,4.925z M121.57,9.646
			c0.39-0.402,0.584-0.932,0.584-1.587c0-0.656-0.194-1.185-0.584-1.587c-0.391-0.402-0.887-0.604-1.489-0.604
			c-0.394,0-0.746,0.09-1.062,0.269c-0.315,0.18-0.563,0.436-0.748,0.768c-0.185,0.332-0.274,0.717-0.274,1.154
			s0.092,0.822,0.274,1.154s0.433,0.588,0.748,0.768c0.313,0.179,0.668,0.269,1.062,0.269
			C120.685,10.25,121.181,10.049,121.57,9.646z"/>
		<path fill="#1D1D1B" d="M126.536,11.194c-0.568-0.306-1.015-0.732-1.332-1.279c-0.32-0.546-0.479-1.165-0.479-1.855
			s0.157-1.308,0.479-1.85c0.317-0.542,0.764-0.966,1.332-1.272c0.567-0.306,1.207-0.459,1.914-0.459
			c0.717,0,1.358,0.153,1.928,0.459c0.567,0.307,1.014,0.73,1.332,1.272c0.317,0.542,0.479,1.159,0.479,1.85s-0.16,1.31-0.479,1.855
			c-0.318,0.547-0.765,0.974-1.332,1.279c-0.568,0.305-1.211,0.459-1.928,0.459C127.743,11.653,127.104,11.5,126.536,11.194z
			 M129.945,9.646c0.394-0.402,0.591-0.932,0.591-1.587c0-0.656-0.197-1.185-0.591-1.587c-0.396-0.402-0.894-0.604-1.495-0.604
			c-0.604,0-1.101,0.201-1.488,0.604c-0.389,0.403-0.584,0.931-0.584,1.587c0,0.655,0.194,1.185,0.584,1.587
			c0.389,0.402,0.885,0.604,1.488,0.604C129.052,10.25,129.552,10.049,129.945,9.646z"/>
		<path fill="#1D1D1B" d="M133.685,4.558h1.639v2.846h3.529V4.558h1.639v7.004h-1.639V8.794h-3.529v2.768h-1.639V4.558z"/>
		<path fill="#1D1D1B" d="M142.577,4.558h1.639v2.846h3.529V4.558h1.639v7.004h-1.639V8.794h-3.529v2.768h-1.639V4.558z"/>
		<path fill="#1D1D1B" d="M156.925,7.47c0.473,0.402,0.709,0.97,0.709,1.705c0,0.77-0.26,1.363-0.781,1.783
			c-0.52,0.42-1.256,0.625-2.209,0.616l-3.174-0.013V4.558h1.639v2.295l1.771,0.014C155.771,6.866,156.454,7.067,156.925,7.47z
			 M155.601,10.066c0.254-0.21,0.381-0.516,0.381-0.918c0-0.394-0.123-0.683-0.367-0.866c-0.246-0.184-0.617-0.279-1.115-0.288
			l-1.391-0.014v2.374l1.391,0.014C154.979,10.377,155.347,10.276,155.601,10.066z M158.538,4.558h1.641v7.004h-1.641V4.558z"/>
		<path fill="#1D1D1B" d="M162.263,4.558h1.641v4.617l3.869-4.617h1.496v7.004h-1.641V6.944l-3.855,4.617h-1.51V4.558L162.263,4.558
			z M164.04,3.239c-0.371-0.328-0.561-0.807-0.57-1.438h1.09c0.008,0.315,0.105,0.564,0.295,0.748
			c0.188,0.184,0.451,0.275,0.793,0.275c0.332,0,0.598-0.092,0.793-0.275c0.197-0.184,0.301-0.433,0.309-0.748h1.115
			c-0.01,0.63-0.201,1.108-0.578,1.438c-0.375,0.328-0.918,0.492-1.625,0.492C164.952,3.731,164.413,3.567,164.04,3.239z"/>
		<path fill="#1D1D1B" d="M83.384,22.171v2.951h-1.535v-1.562h-5.404v1.562h-1.521v-2.951h0.328c0.446-0.019,0.75-0.304,0.912-0.858
			c0.162-0.556,0.27-1.34,0.321-2.354l0.093-2.4h5.771v5.613L83.384,22.171L83.384,22.171z M77.782,21.043
			c-0.097,0.508-0.271,0.884-0.525,1.128h3.451v-4.223h-2.689l-0.039,1.128C77.944,19.881,77.878,20.536,77.782,21.043z"/>
		<path fill="#1D1D1B" d="M85.94,23.193c-0.568-0.305-1.012-0.731-1.332-1.278c-0.318-0.546-0.479-1.165-0.479-1.854
			c0-0.69,0.158-1.309,0.479-1.851s0.764-0.966,1.332-1.272c0.568-0.306,1.207-0.459,1.915-0.459c0.717,0,1.358,0.153,1.929,0.459
			c0.567,0.308,1.012,0.73,1.331,1.272c0.318,0.542,0.479,1.159,0.479,1.851c0,0.69-0.16,1.31-0.479,1.854
			c-0.319,0.547-0.764,0.974-1.331,1.278c-0.568,0.306-1.212,0.459-1.929,0.459C87.147,23.652,86.509,23.5,85.94,23.193z
			 M89.352,21.646c0.394-0.402,0.59-0.933,0.59-1.588c0-0.656-0.196-1.185-0.59-1.586c-0.396-0.402-0.894-0.604-1.496-0.604
			s-1.101,0.2-1.487,0.604c-0.39,0.401-0.584,0.93-0.584,1.586c0,0.655,0.194,1.186,0.584,1.588
			c0.389,0.401,0.885,0.604,1.487,0.604S88.958,22.049,89.352,21.646z"/>
		<path fill="#1D1D1B" d="M96.001,20.755h-1.271v2.808h-1.641v-7.004h1.641v2.832h1.312l2.071-2.832h1.759l-2.543,3.371l2.715,3.633
			h-1.931L96.001,20.755z"/>
		<path fill="#1D1D1B" d="M107.688,16.559l-3.279,7.567c-0.307,0.761-0.678,1.296-1.115,1.606c-0.437,0.31-0.967,0.466-1.588,0.466
			c-0.35,0-0.694-0.058-1.035-0.171c-0.342-0.113-0.621-0.271-0.84-0.473l0.656-1.207c0.156,0.148,0.342,0.268,0.557,0.354
			c0.215,0.088,0.433,0.132,0.65,0.132c0.287,0,0.525-0.074,0.715-0.225c0.188-0.147,0.359-0.396,0.518-0.746l0.117-0.275
			l-3.055-7.029h1.705l2.203,5.181l2.217-5.181H107.688z"/>
		<path fill="#1D1D1B" d="M115.597,23.562v-4.645l-2.361,3.909h-0.707l-2.322-3.922v4.655h-1.496v-7.004h1.719l2.492,4.381
			l2.61-4.381h1.533l0.015,7.004h-1.482V23.562z"/>
		<path fill="#1D1D1B" d="M125.695,20.584H120.2c0.096,0.518,0.348,0.925,0.754,1.227c0.405,0.303,0.911,0.453,1.516,0.453
			c0.77,0,1.402-0.254,1.902-0.762l0.877,1.012c-0.314,0.375-0.713,0.659-1.193,0.853c-0.48,0.192-1.021,0.288-1.625,0.288
			c-0.77,0-1.447-0.153-2.033-0.459c-0.586-0.307-1.039-0.732-1.357-1.279c-0.319-0.546-0.479-1.165-0.479-1.855
			c0-0.682,0.154-1.295,0.465-1.843c0.311-0.547,0.74-0.973,1.291-1.278c0.551-0.307,1.172-0.459,1.863-0.459
			c0.682,0,1.291,0.15,1.83,0.453c0.537,0.301,0.957,0.726,1.26,1.271c0.301,0.547,0.451,1.179,0.451,1.896
			C125.722,20.213,125.714,20.374,125.695,20.584z M120.849,18.256c-0.361,0.311-0.582,0.725-0.662,1.239h3.975
			c-0.07-0.507-0.283-0.918-0.643-1.231c-0.359-0.314-0.805-0.474-1.338-0.474C121.654,17.79,121.212,17.945,120.849,18.256z"/>
		<path fill="#1D1D1B" d="M127.4,16.559h1.64v2.846h3.528v-2.846h1.64v7.004h-1.64v-2.769h-3.528v2.769h-1.64V16.559z"/>
		<path fill="#1D1D1B" d="M141.843,17.948h-2.453v5.612h-1.641v-5.612h-2.465v-1.392h6.559V17.948z"/>
		<path fill="#1D1D1B" d="M144.124,23.193c-0.568-0.305-1.012-0.731-1.332-1.278c-0.318-0.546-0.479-1.165-0.479-1.854
			c0-0.69,0.16-1.309,0.479-1.851c0.32-0.542,0.764-0.966,1.332-1.272c0.568-0.306,1.207-0.459,1.914-0.459
			c0.719,0,1.361,0.153,1.93,0.459c0.568,0.308,1.012,0.73,1.33,1.272c0.32,0.542,0.479,1.159,0.479,1.851
			c0,0.69-0.158,1.31-0.479,1.854c-0.318,0.547-0.762,0.974-1.33,1.278c-0.568,0.306-1.211,0.459-1.93,0.459
			C145.331,23.652,144.692,23.5,144.124,23.193z M147.534,21.646c0.395-0.402,0.59-0.933,0.59-1.588c0-0.656-0.195-1.185-0.59-1.586
			c-0.393-0.402-0.893-0.604-1.496-0.604c-0.602,0-1.1,0.2-1.488,0.604c-0.389,0.402-0.584,0.93-0.584,1.586
			c0,0.655,0.195,1.186,0.584,1.588c0.389,0.401,0.887,0.604,1.488,0.604C146.642,22.25,147.142,22.049,147.534,21.646z"/>
		<path fill="#1D1D1B" d="M152.479,23.193c-0.568-0.305-1.012-0.731-1.332-1.278c-0.318-0.546-0.479-1.165-0.479-1.854
			c0-0.69,0.16-1.309,0.479-1.851c0.32-0.542,0.764-0.966,1.332-1.272c0.568-0.306,1.207-0.459,1.914-0.459
			c0.717,0,1.359,0.153,1.928,0.459c0.568,0.308,1.014,0.73,1.332,1.272s0.479,1.159,0.479,1.851c0,0.69-0.158,1.31-0.479,1.854
			c-0.318,0.547-0.764,0.974-1.332,1.278c-0.568,0.306-1.211,0.459-1.928,0.459C153.687,23.652,153.048,23.5,152.479,23.193z
			 M155.89,21.646c0.393-0.402,0.59-0.933,0.59-1.588c0-0.656-0.197-1.185-0.59-1.586c-0.395-0.402-0.893-0.604-1.496-0.604
			s-1.1,0.2-1.488,0.604c-0.387,0.402-0.584,0.93-0.584,1.586c0,0.655,0.195,1.186,0.584,1.588c0.389,0.401,0.885,0.604,1.488,0.604
			S155.495,22.049,155.89,21.646z"/>
		<path fill="#1D1D1B" d="M165.175,17.325c0.508,0.284,0.904,0.68,1.188,1.187c0.285,0.508,0.426,1.09,0.426,1.744
			c0,0.674-0.156,1.271-0.471,1.791c-0.316,0.521-0.758,0.926-1.326,1.213c-0.568,0.289-1.215,0.434-1.941,0.434
			c-1.215,0-2.152-0.401-2.816-1.207c-0.666-0.805-0.998-1.963-0.998-3.477c0-1.406,0.303-2.521,0.906-3.344
			s1.523-1.364,2.768-1.627l3.252-0.695l0.236,1.471l-2.951,0.603c-0.848,0.176-1.482,0.474-1.902,0.894s-0.664,1.01-0.734,1.771
			c0.314-0.376,0.695-0.667,1.141-0.872c0.447-0.206,0.938-0.309,1.469-0.309C164.083,16.898,164.669,17.041,165.175,17.325z
			 M164.552,21.784c0.373-0.39,0.559-0.886,0.559-1.488s-0.186-1.089-0.559-1.456c-0.371-0.367-0.857-0.551-1.461-0.551
			c-0.613,0-1.107,0.184-1.482,0.551c-0.377,0.367-0.564,0.854-0.564,1.456c0,0.612,0.189,1.11,0.57,1.495s0.873,0.577,1.477,0.577
			C163.696,22.368,164.181,22.174,164.552,21.784z"/>
		<path fill="#1D1D1B" d="M169.464,23.193c-0.568-0.305-1.012-0.731-1.33-1.278c-0.32-0.546-0.479-1.165-0.479-1.854
			c0-0.69,0.158-1.309,0.479-1.851c0.318-0.542,0.762-0.966,1.33-1.272c0.568-0.306,1.207-0.459,1.916-0.459
			c0.717,0,1.359,0.153,1.928,0.459c0.568,0.308,1.012,0.73,1.332,1.272c0.318,0.542,0.479,1.159,0.479,1.851
			c0,0.69-0.16,1.31-0.479,1.854c-0.32,0.547-0.764,0.974-1.332,1.278c-0.568,0.306-1.211,0.459-1.928,0.459
			C170.671,23.652,170.032,23.5,169.464,23.193z M172.874,21.646c0.395-0.402,0.592-0.933,0.592-1.588
			c0-0.656-0.197-1.185-0.592-1.586c-0.393-0.402-0.891-0.604-1.494-0.604s-1.1,0.2-1.488,0.604
			c-0.391,0.401-0.584,0.93-0.584,1.586c0,0.655,0.193,1.186,0.584,1.588c0.389,0.401,0.885,0.604,1.488,0.604
			S172.481,22.049,172.874,21.646z"/>
		<path fill="#1D1D1B" d="M182.325,16.925c0.537,0.298,0.959,0.718,1.266,1.259c0.305,0.543,0.459,1.168,0.459,1.877
			c0,0.707-0.154,1.336-0.459,1.881c-0.307,0.548-0.729,0.97-1.266,1.267c-0.539,0.298-1.148,0.446-1.83,0.446
			c-0.945,0-1.691-0.314-2.242-0.944v3.397h-1.641v-9.549h1.561v0.918c0.271-0.332,0.605-0.582,1.004-0.748s0.838-0.25,1.318-0.25
			C181.177,16.479,181.786,16.628,182.325,16.925z M181.8,21.646c0.389-0.402,0.584-0.933,0.584-1.588
			c0-0.656-0.195-1.185-0.584-1.586c-0.389-0.402-0.885-0.604-1.488-0.604c-0.393,0-0.748,0.09-1.062,0.269
			c-0.312,0.18-0.562,0.437-0.748,0.769c-0.184,0.331-0.273,0.717-0.273,1.153c0,0.438,0.092,0.822,0.273,1.154
			c0.184,0.332,0.436,0.588,0.748,0.768c0.314,0.18,0.67,0.27,1.062,0.27C180.915,22.25,181.411,22.049,181.8,21.646z"/>
		<path fill="#1D1D1B" d="M186.765,23.193c-0.568-0.305-1.012-0.731-1.332-1.278c-0.318-0.546-0.479-1.165-0.479-1.854
			c0-0.69,0.16-1.309,0.479-1.851c0.32-0.542,0.764-0.966,1.332-1.272c0.568-0.306,1.207-0.459,1.914-0.459
			c0.717,0,1.359,0.153,1.928,0.459c0.568,0.308,1.014,0.73,1.332,1.272s0.479,1.159,0.479,1.851c0,0.69-0.16,1.31-0.479,1.854
			c-0.318,0.547-0.764,0.974-1.332,1.278c-0.568,0.306-1.211,0.459-1.928,0.459C187.972,23.652,187.333,23.5,186.765,23.193z
			 M190.175,21.646c0.393-0.402,0.59-0.933,0.59-1.588c0-0.656-0.197-1.185-0.59-1.586c-0.395-0.402-0.893-0.604-1.496-0.604
			s-1.1,0.2-1.488,0.604c-0.389,0.402-0.584,0.93-0.584,1.586c0,0.655,0.195,1.186,0.584,1.588c0.389,0.401,0.885,0.604,1.488,0.604
			S189.78,22.049,190.175,21.646z"/>
		<path fill="#1D1D1B" d="M199.46,17.948h-2.451v5.612h-1.641v-5.612h-2.465v-1.392h6.557V17.948z"/>
	</g>
	<g>
		<g>
			<path fill="#7345C4" d="M0.544,15.749v12.087h68.812V15.749H0.544z M22.331,20.271h-6.516v-0.819
				c0-0.464-1.361-0.695-2.369-0.695c-1.1,0-2.219,0.201-2.219,0.664v4.468c0,0.674,0.857,0.938,2.219,0.938
				c1.391,0,2.369-0.246,2.369-0.908v-1.192h6.516v0.834c0,2.041-2.799,2.918-8.809,2.918c-5.993,0-8.807-0.877-8.807-2.936v-3.904
				c0-1.406,2.631-2.535,8.807-2.535c6.087,0,8.809,1.16,8.809,2.552V20.271L22.331,20.271z M40.374,23.654
				c0,1.791-2.677,2.824-8.746,2.824c-6.028,0-8.777-1.033-8.777-2.824v-4.016c0-1.406,2.658-2.518,8.777-2.535h0.028
				c6.118,0,8.718,1.145,8.718,2.535V23.654z M65.187,26.264h-6.205V23.13c0-0.868-0.005,0.868,0.018-3.276l-3.734,6.408h-4.526
				l-3.7-6.408l-0.015,3.258v3.15h-6.209v-8.957h9.069l2.109,3.629c0.443,0.741,1.002,1.724,1.043,1.731
				c0.037,0.011,0.608-1.082,0.991-1.731l2.097-3.629h9.062V26.264z"/>
			<path fill="#7345C4" d="M31.628,18.758c-1.135,0-2.265,0.231-2.265,0.74v4.54c0,0.524,1.13,0.788,2.265,0.788
				c1.082,0,2.246-0.264,2.246-0.788v-4.54C33.874,18.989,32.71,18.758,31.628,18.758z"/>
		</g>
		<path fill="#1D1E1C" d="M0.54,0.165V2.73h7.426v11.017h8.675V2.73h6.924V0.165H0.54z M32.001,2.606l2.508,5.979h-5.02
			L32.001,2.606z M59.868,0.165L55.351,4.16l-4.535-3.995h-9.098l8.293,6.716l-5.288,4.184l-6.956-10.9H26.493l-8.509,13.583h9.373
			l1.202-2.736h7.182l1.434,2.736h13.262l4.914-4.147l4.093,4.147h9.921L60.693,6.88l8.291-6.716L59.868,0.165L59.868,0.165z"/>
	</g>
</g>
</svg>
