<svg xmlns="http://www.w3.org/2000/svg" xmlns:xlink="http://www.w3.org/1999/xlink" width="20" height="20" viewBox="0 0 20 20">
    <defs>
        <path id="a" d="M10.5 17a6.5 6.5 0 1 1 0-13 6.5 6.5 0 0 1 0 13zm0-1a5.5 5.5 0 1 0 0-11 5.5 5.5 0 0 0 0 11zm-.696-4.427v-.312c0-.358.065-.656.195-.894.13-.237.358-.483.684-.737.387-.306.637-.544.75-.713a1.07 1.07 0 0 0 .168-.605c0-.274-.092-.484-.274-.63-.182-.147-.444-.22-.786-.22-.31 0-.596.044-.86.132a6.1 6.1 0 0 0-.77.317l-.411-.86a4.298 4.298 0 0 1 2.124-.551c.638 0 1.144.156 1.519.469.374.312.561.744.561 1.294 0 .244-.036.461-.107.652a1.87 1.87 0 0 1-.325.544c-.145.173-.395.397-.75.674-.302.237-.505.434-.607.59-.103.157-.154.367-.154.63v.22h-.957zm-.2 1.558c0-.492.239-.737.717-.737.235 0 .414.064.537.192.124.129.186.31.186.545 0 .231-.063.414-.188.55-.125.134-.304.202-.535.202-.23 0-.408-.066-.532-.198-.124-.132-.185-.317-.185-.554z"/>
    </defs>
    <g fill="none" fill-rule="evenodd">
        <mask id="b" fill="#fff">
            <use xlink:href="#a"/>
        </mask>
        <use fill="#6A7F98" fill-rule="nonzero" xlink:href="#a"/>
        <g fill="#6A7F98" fill-rule="nonzero" mask="url(#b)">
            <path d="M0 0h20v20H0z"/>
        </g>
    </g>
</svg>
