<svg version="1.1" xmlns="http://www.w3.org/2000/svg" xmlns:xlink="http://www.w3.org/1999/xlink" x="0px" y="0px"
	 width="48px" height="48px" viewBox="36 0 48 48" enable-background="new 36 0 48 48" xml:space="preserve">
<g>
	<g transform="translate(-90 -20)">
		<path id="a" fill="#EAE60E" d="M138.939,20h22.12c4.5,0,6.13,0.47,7.771,1.35c1.627,0.861,2.959,2.192,3.819,3.82
			c0.88,1.64,1.351,3.27,1.351,7.77v22.121c0,4.5-0.471,6.129-1.351,7.771c-0.86,1.628-2.192,2.959-3.819,3.818
			c-1.641,0.881-3.271,1.351-7.771,1.351h-22.12c-4.5,0-6.13-0.47-7.77-1.351c-1.628-0.86-2.959-2.191-3.82-3.819
			c-0.88-1.63-1.35-3.271-1.35-7.771V32.94c0-4.5,0.47-6.13,1.35-7.77c0.861-1.628,2.192-2.959,3.82-3.82
			C132.81,20.47,134.439,20,138.939,20z"/>
	</g>
	<g transform="translate(-90 -20)">
		<path id="M" fill="#63666A" d="M161.99,29.74c1.26,0.005,2.279,1.029,2.279,2.29v5.68h4.76v-5.68c0-3.9-3.16-7.062-7.039-7.062
			h-5.701v4.771L161.99,29.74L161.99,29.74z"/>
	</g>
	<g transform="translate(-90 -20)">
		<path id="N" fill="#63666A" d="M164.27,56c0,1.26-1.021,2.28-2.279,2.28h-5.701v4.75h5.701c3.881-0.007,7.028-3.148,7.039-7.03
			v-5.7h-4.76V56z"/>
	</g>
	<g transform="translate(-90 -20)">
		<path id="O" fill="#63666A" d="M135.729,32.03c-0.005-1.265,1.015-2.295,2.28-2.3l0,0h5.7v-4.76h-5.7
			c-3.891,0.011-7.04,3.169-7.04,7.062v5.68h4.76V32.03z"/>
	</g>
	<g transform="translate(-90 -20)">
		<path id="P" fill="#63666A" d="M138.009,58.28c-1.257-0.007-2.274-1.023-2.28-2.28v-5.7h-4.76V56
			c0.011,3.882,3.158,7.023,7.04,7.03h5.7v-4.75H138.009z"/>
	</g>
	<g transform="translate(-90 -20)">
		<path id="Q" fill="#63666A" d="M147.259,55.42l-10.17-10.17l3.36-3.37l6.8,6.8l12.299-12.3l3.361,3.37L147.259,55.42z"/>
	</g>
</g>
</svg>
