<svg xmlns="http://www.w3.org/2000/svg" xmlns:xlink="http://www.w3.org/1999/xlink" x="0px" y="0px" width="20px" height="20px">
<path fill="#4CAF50" d="M14.771,3.578l-0.735,0.987c-3.003-2.229-7.243-1.601-9.471,1.401s-1.601,7.243,1.401,9.471
	c3.002,2.229,7.243,1.602,9.471-1.401c1.328-1.789,1.69-4.117,0.97-6.225l1.165-0.398c1.43,4.181-0.801,8.729-4.981,10.158
	C8.41,19,3.862,16.771,2.433,12.59S3.233,3.861,7.414,2.432C9.905,1.58,12.656,2.008,14.771,3.578z M17.055,3.333L18,4.096
	l-7.94,8.57L6,9.334l0.667-0.666l3.215,2.411L17.055,3.333L17.055,3.333z"/>
</svg>
