<svg version="1.1" id="Слой_1" xmlns="http://www.w3.org/2000/svg" xmlns:xlink="http://www.w3.org/1999/xlink" x="0px" y="0px"
	 width="24.945px" height="24.945px" viewBox="0 0 24.945 24.945" enable-background="new 0 0 24.945 24.945" xml:space="preserve">
<g>
	<path fill="#6639B5" d="M21.939,7.846c0,0-1.42-3.426-1.92-4.577c-0.023-0.053-0.442-1.297-1.75-1.297H6.692
		C5.374,1.972,5,3.23,4.951,3.347c-0.472,1.143-1.919,4.5-1.919,4.5l-0.06,0.275V20.82c0,0.637,0.539,1.152,1.201,1.152h16.598
		c0.662,0,1.201-0.52,1.201-1.152V8.124L21.939,7.846z M18.269,2.971c0.516,0.016,0.735,0.423,0.812,0.642
		c0.308,0.872,1.411,3.359,1.411,3.359h-7.521v-4L18.269,2.971z M5.879,3.707c0.003-0.006,0.299-0.735,0.813-0.735h5.28v4h-7.5
		C4.472,6.971,5.483,4.519,5.879,3.707z M20.972,20.82c0,0.082-0.093,0.152-0.201,0.152H4.176c-0.108,0-0.201-0.07-0.201-0.152
		V8.124c0-0.01,0.012-0.016,0.014-0.023l0,0V8.097C4.009,8.028,4.08,7.971,4.176,7.971h16.598c0.108,0,0.201,0.068,0.201,0.151
		L20.972,20.82L20.972,20.82z"/>
	<path fill="#6639B5" d="M16.119,11.119c0.195-0.194,0.513-0.195,0.707,0c0.195,0.195,0.195,0.515,0,0.709l-4.914,4.913
		c-0.191,0.193-0.512,0.195-0.707,0.001c0-0.001,0-0.001,0-0.001L8.387,13.92c-0.195-0.194-0.195-0.513,0-0.706
		c0.191-0.195,0.512-0.193,0.707,0l2.465,2.466L16.119,11.119z"/>
</g>
</svg>
