<svg version="1.1" id="Слой_1" xmlns="http://www.w3.org/2000/svg" xmlns:xlink="http://www.w3.org/1999/xlink" x="0px" y="0px"
	 width="24.945px" height="24.945px" viewBox="0 0 24.945 24.945" enable-background="new 0 0 24.945 24.945" xml:space="preserve">
<g>
	<path fill="#6639B5" d="M23.969,10.266l-4.132-5.098l0,0c-0.195-0.194-0.518-0.192-0.707,0.001l-4.156,5.095
		c-0.193,0.194-0.195,0.514-0.002,0.708c0.195,0.194,0.516,0.194,0.707,0.001l3.293-3.992v10.991h-8v1h9v-12l3.296,3.999
		c0.189,0.191,0.512,0.193,0.704,0.001C24.165,10.778,24.162,10.459,23.969,10.266z"/>
	<path fill="#6639B5" d="M0.975,13.679l4.132,5.148l0,0c0.195,0.193,0.518,0.191,0.707-0.002l4.156-5.145
		c0.193-0.195,0.195-0.514,0.002-0.709c-0.195-0.193-0.515-0.193-0.707,0l-3.293,4.043l0-11.043h8v-1h-9l0,12.051l-3.296-4.049
		c-0.189-0.191-0.512-0.193-0.704-0.002C0.78,13.168,0.783,13.486,0.975,13.679z"/>
</g>
</svg>
