<svg xmlns="http://www.w3.org/2000/svg" xmlns:xlink="http://www.w3.org/1999/xlink" x="0px" y="0px" width="20px" height="20px" viewBox="0 0 20 20">
<g>
	<path fill="#CB4757" d="M15.639,10.807L12.5,12.898l-3-2l-3,2l-3.139-2.092L3,10.562V17c0,1.105,0.776,2,2,2h9c1.225,0,2-0.895,2-2
		v-6.438L15.639,10.807z M15,17c0,0.582-0.363,1-1,1H5c-0.637,0-1-0.418-1-1v-4.565l2.5,1.666l3-2l3,2l2.5-1.666V17z"/>
	<path fill="#CB4757" d="M3,8.781l0.398,0.252L6.5,11.101l3-2l3,2L16,8.768l0,0V4c0-1.125-2.215-3-3-3H5C3.776,1,3,1.895,3,3V8.781z
		 M13,2c0.322,0,2,1.512,2,2h-2V2z M4,3c0-0.582,0.363-1,1-1h7v3h3v3.232l-2.5,1.667l-3-2l-3,2L4,8.232V3z"/>
</g>
</svg>
